<?xml version="1.0" standalone="no"?>
<!DOCTYPE svg PUBLIC "-//W3C//DTD SVG 20010904//EN"
 "http://www.w3.org/TR/2001/REC-SVG-20010904/DTD/svg10.dtd">
<svg version="1.0" xmlns="http://www.w3.org/2000/svg"
 width="414.000000pt" height="414.000000pt" viewBox="0 0 414.000000 414.000000"
 preserveAspectRatio="xMidYMid meet">
<metadata>
Created by potrace 1.14, written by Peter Selinger 2001-2017
</metadata>
<g transform="translate(0.000000,414.000000) scale(0.100000,-0.100000)"
fill="#000000" stroke="none">
<path d="M2672 2643 c-20 -24 -20 -27 -4 -39 14 -10 22 -9 44 8 31 22 33 29
16 46 -18 18 -32 15 -56 -15z"/>
<path d="M1733 2568 c-19 -24 -192 -376 -187 -380 2 -3 14 -3 27 -1 17 4 37
36 91 149 38 79 72 144 75 144 6 -1 121 -231 121 -243 0 -4 -38 -7 -84 -7 -63
0 -87 -4 -96 -15 -7 -9 -10 -18 -6 -22 6 -6 254 -8 261 -2 1 2 -41 91 -94 197
-74 147 -100 191 -108 180z"/>
<path d="M62 2554 c-38 -16 -53 -37 -57 -83 -4 -50 22 -95 64 -109 29 -10 31
-10 31 14 0 13 -4 24 -9 24 -19 0 -41 32 -41 59 0 54 28 66 161 66 113 0 119
0 119 20 0 20 -6 21 -121 21 -67 0 -132 -5 -147 -12z"/>
<path d="M530 2544 c0 -19 5 -21 58 -19 31 1 63 0 70 -3 9 -3 12 -46 12 -168
l0 -164 23 0 23 0 -1 158 c-1 86 1 162 2 168 2 6 30 10 69 9 66 -2 78 3 69 27
-4 11 -39 14 -165 13 -156 0 -160 0 -160 -21z"/>
<path d="M1050 2378 l0 -188 25 0 25 0 2 168 3 167 80 0 c111 1 124 -3 141
-39 27 -56 -13 -110 -73 -100 -13 3 -23 1 -23 -3 0 -5 21 -49 47 -100 35 -68
53 -93 70 -96 30 -6 29 1 -12 83 l-35 69 31 16 c52 27 69 100 38 160 -21 42
-47 49 -186 50 l-133 1 0 -188z"/>
<path d="M2030 2544 c0 -20 5 -21 58 -20 31 1 63 0 70 -2 9 -3 12 -46 12 -172
l0 -167 23 4 c23 5 23 6 22 161 -1 86 1 162 2 168 2 6 30 10 68 9 62 -2 83 8
67 31 -4 6 -74 10 -164 10 -154 -1 -158 -1 -158 -22z"/>
<path d="M2562 2561 c-4 -3 -8 -89 -7 -190 l0 -184 130 1 c175 0 164 -1 158
22 -5 19 -14 20 -124 20 l-119 0 0 148 0 148 116 -1 c102 -1 117 1 125 17 5
10 6 19 2 19 -28 5 -274 4 -281 0z"/>
<path d="M3179 2560 c-38 -11 -72 -31 -92 -54 -111 -126 -29 -318 137 -319 55
0 117 25 150 62 18 20 19 23 3 38 -16 16 -18 16 -38 -6 -67 -72 -179 -63 -235
18 -44 64 -23 152 46 199 62 42 162 20 202 -46 12 -20 16 -21 33 -8 19 13 18
15 -7 48 -43 56 -134 87 -199 68z"/>
<path d="M3599 2547 c0 -12 -1 -97 -2 -190 l-2 -167 25 0 25 0 -2 167 c-1 93
-2 177 -2 188 -1 30 -41 31 -42 2z"/>
<path d="M3846 2560 c-3 -5 0 -346 2 -365 2 -11 262 -12 280 -1 6 4 9 13 6 21
-5 11 -33 15 -126 17 l-119 3 0 139 c0 88 4 142 11 146 6 3 60 6 120 5 107 -1
130 5 112 31 -7 10 -281 14 -286 4z"/>
<path d="M240 2381 c0 -10 11 -28 25 -41 29 -27 32 -56 9 -88 -14 -21 -22 -22
-140 -22 -122 0 -124 0 -124 -22 0 -23 1 -23 130 -21 144 1 170 10 187 60 22
60 -8 130 -60 144 -22 6 -27 4 -27 -10z"/>
<path d="M2658 2373 c-18 -23 1 -28 94 -28 76 0 83 2 83 20 0 17 -8 19 -82 21
-62 1 -86 -2 -95 -13z"/>
<path d="M3206 2381 c-1 -4 -2 -13 -2 -21 1 -12 18 -15 84 -15 87 -1 107 4
100 26 -3 10 -27 14 -92 15 -48 0 -88 -2 -90 -5z"/>
<path d="M3949 2378 c-6 -31 -2 -33 78 -34 86 -1 108 5 101 27 -3 10 -27 14
-91 14 -48 1 -88 -3 -88 -7z"/>
<path d="M2382 1870 c-165 -38 -209 -260 -71 -360 104 -75 246 -35 300 84 67
148 -69 313 -229 276z"/>
<path d="M3119 1866 c-118 -41 -174 -166 -124 -274 50 -109 171 -151 277 -96
121 63 143 235 41 325 -57 49 -131 67 -194 45z"/>
<path d="M3862 1861 c-64 -22 -85 -40 -113 -98 -67 -138 33 -296 186 -292 73
2 143 51 176 124 55 121 -24 258 -161 279 -21 3 -56 -2 -88 -13z"/>
<path d="M704 1848 c-42 -66 -189 -378 -180 -381 29 -10 48 15 111 144 38 77
72 142 75 144 3 2 34 -52 68 -121 l62 -124 -90 0 c-79 0 -91 -2 -100 -20 -8
-15 -8 -20 2 -21 53 -4 232 -3 243 1 10 4 -10 53 -82 195 -52 105 -97 191 -98
193 -2 2 -7 -3 -11 -10z"/>
<path d="M127 1835 c-106 -36 -156 -163 -106 -265 19 -40 41 -61 86 -84 72
-36 165 -21 221 37 28 29 31 36 18 46 -12 11 -22 7 -55 -20 -76 -61 -164 -48
-224 33 -45 61 -13 168 60 203 65 31 146 9 190 -51 16 -22 20 -23 37 -11 18
13 17 15 -14 51 -18 20 -45 43 -61 51 -40 21 -108 25 -152 10z"/>
<path d="M1095 1660 l0 -190 30 -1 c223 -7 270 -3 259 26 -5 12 -29 15 -125
15 l-119 0 -2 167 c-3 157 -4 166 -23 169 -20 3 -20 -2 -20 -186z"/>
<path d="M1586 1842 c-3 -3 -6 -88 -6 -189 l0 -183 25 -1 c14 -1 72 -1 130 -1
140 0 135 -1 135 22 0 18 -8 20 -122 22 l-123 3 0 164 c0 146 -2 164 -17 167
-9 1 -19 -1 -22 -4z"/>
</g>
</svg>
